<svg xmlns="http://www.w3.org/2000/svg" xmlns:xlink="http://www.w3.org/1999/xlink" version="1.1" x="0" y="0" viewbox="0 0 220.0 220.0" width="220.0" height="220.0">

<circle xmlns="http://www.w3.org/2000/svg" cx="110.0" cy="110.0" r="107.25" stroke-width="4.0" stroke="#282473" fill="#FFFFFF"></circle>


<g transform="translate(17.6, 17.6) scale(0.84)">

  <circle cx="110" cy="110" r="110" fill="none" />
  <path fill-rule="evenodd" clip-rule="evenodd" d="M56.9564 17.8788C57.3209 17.8788 57.6788 17.7833 57.9963 17.6042C73.3666 8.93306 91.1166 3.98539 110.022 3.98539C128.928 3.98539 146.678 8.93306 162.048 17.6042C162.366 17.7833 162.724 17.8788 163.088 17.8788V17.8788C165.172 17.8788 165.929 15.2457 164.116 14.2196C148.143 5.18128 129.685 0.0222168 110.022 0.0222168C90.3595 0.0222168 71.9017 5.18128 55.9287 14.2196C54.1154 15.2457 54.8729 17.8788 56.9564 17.8788V17.8788ZM17.6043 57.9962C17.7834 57.6787 17.8788 57.3208 17.8788 56.9563V56.9563C17.8788 54.8728 15.2457 54.1153 14.2197 55.9286C5.1813 71.9016 0.0222168 90.3595 0.0222168 110.022C0.0222168 129.685 5.1813 148.143 14.2197 164.116C15.2457 165.929 17.8788 165.172 17.8788 163.088V163.088C17.8788 162.724 17.7834 162.366 17.6043 162.048C8.93308 146.678 3.98539 128.928 3.98539 110.022C3.98539 91.1166 8.93308 73.3665 17.6043 57.9962ZM57.9971 202.441C57.6796 202.262 57.3217 202.166 56.9572 202.166V202.166C54.8737 202.166 54.1162 204.799 55.9295 205.825C71.9023 214.863 90.3598 220.022 110.022 220.022C129.685 220.022 148.142 214.863 164.115 205.825C165.928 204.799 165.171 202.166 163.087 202.166V202.166C162.723 202.166 162.365 202.262 162.047 202.441C146.677 211.112 128.928 216.059 110.022 216.059C91.1169 216.059 73.3672 211.112 57.9971 202.441ZM202.441 162.047C202.262 162.365 202.166 162.723 202.166 163.087V163.087C202.166 165.171 204.799 165.928 205.825 164.115C214.863 148.142 220.022 129.685 220.022 110.022C220.022 90.3599 214.863 71.9025 205.825 55.9297C204.799 54.1164 202.166 54.8739 202.166 56.9573V56.9573C202.166 57.3219 202.262 57.6797 202.441 57.9972C211.112 73.3673 216.059 91.117 216.059 110.022C216.059 128.927 211.112 146.677 202.441 162.047Z" fill="#282473"/>
  

  
  <rect width="3.95" height="3.95" fill="#282473" x="86.78" y="13" ></rect>
  <rect width="3.95" height="3.95" fill="#282473" x="97.32" y="13" ></rect>
  <rect width="3.95" height="3.95" fill="#282473" x="107.86" y="13" ></rect>
  <rect width="3.95" height="3.95" fill="#282473" x="118.4" y="13" ></rect>
  <rect width="3.95" height="3.95" fill="#282473" x="128.94" y="13" ></rect>

  <rect width="3.95" height="3.95" fill="#282473" x="203.05" y="86.78" ></rect>
  <rect width="3.95" height="3.95" fill="#282473" x="203.05" y="97.32" ></rect>
  <rect width="3.95" height="3.95" fill="#282473" x="203.05" y="107.86" ></rect>
  <rect width="3.95" height="3.95" fill="#282473" x="203.05" y="118.4" ></rect>
  <rect width="3.95" height="3.95" fill="#282473" x="203.05" y="128.94" ></rect>

  <rect width="3.95" height="3.95" fill="#282473" x="128.94" y="203.05" ></rect>
  <rect width="3.95" height="3.95" fill="#282473" x="118.4" y="203.05" ></rect>
  <rect width="3.95" height="3.95" fill="#282473" x="107.86" y="203.05" ></rect>
  <rect width="3.95" height="3.95" fill="#282473" x="97.32" y="203.05" ></rect>
  <rect width="3.95" height="3.95" fill="#282473" x="86.78" y="203.05" ></rect>

  <rect width="3.95" height="3.95" fill="#282473" x="13" y="86.78" ></rect>
  <rect width="3.95" height="3.95" fill="#282473" x="13" y="97.32" ></rect>
  <rect width="3.95" height="3.95" fill="#282473" x="13" y="107.86" ></rect>
  <rect width="3.95" height="3.95" fill="#282473" x="13" y="118.4" ></rect>
  <rect width="3.95" height="3.95" fill="#282473" x="13" y="128.94" ></rect>
  
</g>
  
<g transform="translate(38.60000000000001, 38.60000000000001)">
<g fill="#282473">
<rect x="35.16416666666666" y="0.5508333333333333" width="3.2449999999999997" height="3.2449999999999997" rx="0"></rect>
<rect x="48.144166666666656" y="0.5508333333333333" width="3.2449999999999997" height="3.2449999999999997" rx="0"></rect>
<rect x="56.79749999999999" y="0.5508333333333333" width="3.2449999999999997" height="3.2449999999999997" rx="0"></rect>
<rect x="69.7775" y="0.5508333333333333" width="3.2449999999999997" height="3.2449999999999997" rx="0"></rect>
<rect x="74.10416666666667" y="0.5508333333333333" width="3.2449999999999997" height="3.2449999999999997" rx="0"></rect>
<rect x="82.75750000000001" y="0.5508333333333333" width="3.2449999999999997" height="3.2449999999999997" rx="0"></rect>
<rect x="91.41083333333333" y="0.5508333333333333" width="3.2449999999999997" height="3.2449999999999997" rx="0"></rect>
<rect x="95.7375" y="0.5508333333333333" width="3.2449999999999997" height="3.2449999999999997" rx="0"></rect>
<rect x="100.06416666666667" y="0.5508333333333333" width="3.2449999999999997" height="3.2449999999999997" rx="0"></rect>
<rect x="39.49083333333333" y="4.8774999999999995" width="3.2449999999999997" height="3.2449999999999997" rx="0"></rect>
<rect x="43.817499999999995" y="4.8774999999999995" width="3.2449999999999997" height="3.2449999999999997" rx="0"></rect>
<rect x="52.470833333333324" y="4.8774999999999995" width="3.2449999999999997" height="3.2449999999999997" rx="0"></rect>
<rect x="56.79749999999999" y="4.8774999999999995" width="3.2449999999999997" height="3.2449999999999997" rx="0"></rect>
<rect x="61.12416666666665" y="4.8774999999999995" width="3.2449999999999997" height="3.2449999999999997" rx="0"></rect>
<rect x="69.7775" y="4.8774999999999995" width="3.2449999999999997" height="3.2449999999999997" rx="0"></rect>
<rect x="78.43083333333334" y="4.8774999999999995" width="3.2449999999999997" height="3.2449999999999997" rx="0"></rect>
<rect x="87.08416666666668" y="4.8774999999999995" width="3.2449999999999997" height="3.2449999999999997" rx="0"></rect>
<rect x="91.41083333333333" y="4.8774999999999995" width="3.2449999999999997" height="3.2449999999999997" rx="0"></rect>
<rect x="95.7375" y="4.8774999999999995" width="3.2449999999999997" height="3.2449999999999997" rx="0"></rect>
<rect x="100.06416666666667" y="4.8774999999999995" width="3.2449999999999997" height="3.2449999999999997" rx="0"></rect>
<rect x="104.39083333333333" y="4.8774999999999995" width="3.2449999999999997" height="3.2449999999999997" rx="0"></rect>
<rect x="35.16416666666666" y="9.204166666666666" width="3.2449999999999997" height="3.2449999999999997" rx="0"></rect>
<rect x="43.817499999999995" y="9.204166666666666" width="3.2449999999999997" height="3.2449999999999997" rx="0"></rect>
<rect x="52.470833333333324" y="9.204166666666666" width="3.2449999999999997" height="3.2449999999999997" rx="0"></rect>
<rect x="61.12416666666665" y="9.204166666666666" width="3.2449999999999997" height="3.2449999999999997" rx="0"></rect>
<rect x="65.45083333333334" y="9.204166666666666" width="3.2449999999999997" height="3.2449999999999997" rx="0"></rect>
<rect x="78.43083333333334" y="9.204166666666666" width="3.2449999999999997" height="3.2449999999999997" rx="0"></rect>
<rect x="100.06416666666667" y="9.204166666666666" width="3.2449999999999997" height="3.2449999999999997" rx="0"></rect>
<rect x="35.16416666666666" y="13.530833333333332" width="3.2449999999999997" height="3.2449999999999997" rx="0"></rect>
<rect x="39.49083333333333" y="13.530833333333332" width="3.2449999999999997" height="3.2449999999999997" rx="0"></rect>
<rect x="43.817499999999995" y="13.530833333333332" width="3.2449999999999997" height="3.2449999999999997" rx="0"></rect>
<rect x="48.144166666666656" y="13.530833333333332" width="3.2449999999999997" height="3.2449999999999997" rx="0"></rect>
<rect x="56.79749999999999" y="13.530833333333332" width="3.2449999999999997" height="3.2449999999999997" rx="0"></rect>
<rect x="61.12416666666665" y="13.530833333333332" width="3.2449999999999997" height="3.2449999999999997" rx="0"></rect>
<rect x="65.45083333333334" y="13.530833333333332" width="3.2449999999999997" height="3.2449999999999997" rx="0"></rect>
<rect x="69.7775" y="13.530833333333332" width="3.2449999999999997" height="3.2449999999999997" rx="0"></rect>
<rect x="74.10416666666667" y="13.530833333333332" width="3.2449999999999997" height="3.2449999999999997" rx="0"></rect>
<rect x="78.43083333333334" y="13.530833333333332" width="3.2449999999999997" height="3.2449999999999997" rx="0"></rect>
<rect x="82.75750000000001" y="13.530833333333332" width="3.2449999999999997" height="3.2449999999999997" rx="0"></rect>
<rect x="95.7375" y="13.530833333333332" width="3.2449999999999997" height="3.2449999999999997" rx="0"></rect>
<rect x="100.06416666666667" y="13.530833333333332" width="3.2449999999999997" height="3.2449999999999997" rx="0"></rect>
<rect x="104.39083333333333" y="13.530833333333332" width="3.2449999999999997" height="3.2449999999999997" rx="0"></rect>
<rect x="39.49083333333333" y="17.857499999999998" width="3.2449999999999997" height="3.2449999999999997" rx="0"></rect>
<rect x="43.817499999999995" y="17.857499999999998" width="3.2449999999999997" height="3.2449999999999997" rx="0"></rect>
<rect x="56.79749999999999" y="17.857499999999998" width="3.2449999999999997" height="3.2449999999999997" rx="0"></rect>
<rect x="61.12416666666665" y="17.857499999999998" width="3.2449999999999997" height="3.2449999999999997" rx="0"></rect>
<rect x="65.45083333333334" y="17.857499999999998" width="3.2449999999999997" height="3.2449999999999997" rx="0"></rect>
<rect x="78.43083333333334" y="17.857499999999998" width="3.2449999999999997" height="3.2449999999999997" rx="0"></rect>
<rect x="82.75750000000001" y="17.857499999999998" width="3.2449999999999997" height="3.2449999999999997" rx="0"></rect>
<rect x="87.08416666666668" y="17.857499999999998" width="3.2449999999999997" height="3.2449999999999997" rx="0"></rect>
<rect x="100.06416666666667" y="17.857499999999998" width="3.2449999999999997" height="3.2449999999999997" rx="0"></rect>
<rect x="35.16416666666666" y="22.184166666666666" width="3.2449999999999997" height="3.2449999999999997" rx="0"></rect>
<rect x="48.144166666666656" y="22.184166666666666" width="3.2449999999999997" height="3.2449999999999997" rx="0"></rect>
<rect x="56.79749999999999" y="22.184166666666666" width="3.2449999999999997" height="3.2449999999999997" rx="0"></rect>
<rect x="61.12416666666665" y="22.184166666666666" width="3.2449999999999997" height="3.2449999999999997" rx="0"></rect>
<rect x="65.45083333333334" y="22.184166666666666" width="3.2449999999999997" height="3.2449999999999997" rx="0"></rect>
<rect x="74.10416666666667" y="22.184166666666666" width="3.2449999999999997" height="3.2449999999999997" rx="0"></rect>
<rect x="82.75750000000001" y="22.184166666666666" width="3.2449999999999997" height="3.2449999999999997" rx="0"></rect>
<rect x="87.08416666666668" y="22.184166666666666" width="3.2449999999999997" height="3.2449999999999997" rx="0"></rect>
<rect x="35.16416666666666" y="26.51083333333333" width="3.2449999999999997" height="3.2449999999999997" rx="0"></rect>
<rect x="43.817499999999995" y="26.51083333333333" width="3.2449999999999997" height="3.2449999999999997" rx="0"></rect>
<rect x="52.470833333333324" y="26.51083333333333" width="3.2449999999999997" height="3.2449999999999997" rx="0"></rect>
<rect x="61.12416666666665" y="26.51083333333333" width="3.2449999999999997" height="3.2449999999999997" rx="0"></rect>
<rect x="69.7775" y="26.51083333333333" width="3.2449999999999997" height="3.2449999999999997" rx="0"></rect>
<rect x="78.43083333333334" y="26.51083333333333" width="3.2449999999999997" height="3.2449999999999997" rx="0"></rect>
<rect x="87.08416666666668" y="26.51083333333333" width="3.2449999999999997" height="3.2449999999999997" rx="0"></rect>
<rect x="95.7375" y="26.51083333333333" width="3.2449999999999997" height="3.2449999999999997" rx="0"></rect>
<rect x="104.39083333333333" y="26.51083333333333" width="3.2449999999999997" height="3.2449999999999997" rx="0"></rect>
<rect x="35.16416666666666" y="30.837499999999995" width="3.2449999999999997" height="3.2449999999999997" rx="0"></rect>
<rect x="52.470833333333324" y="30.837499999999995" width="3.2449999999999997" height="3.2449999999999997" rx="0"></rect>
<rect x="56.79749999999999" y="30.837499999999995" width="3.2449999999999997" height="3.2449999999999997" rx="0"></rect>
<rect x="74.10416666666667" y="30.837499999999995" width="3.2449999999999997" height="3.2449999999999997" rx="0"></rect>
<rect x="82.75750000000001" y="30.837499999999995" width="3.2449999999999997" height="3.2449999999999997" rx="0"></rect>
<rect x="87.08416666666668" y="30.837499999999995" width="3.2449999999999997" height="3.2449999999999997" rx="0"></rect>
<rect x="91.41083333333333" y="30.837499999999995" width="3.2449999999999997" height="3.2449999999999997" rx="0"></rect>
<rect x="95.7375" y="30.837499999999995" width="3.2449999999999997" height="3.2449999999999997" rx="0"></rect>
<rect x="104.39083333333333" y="30.837499999999995" width="3.2449999999999997" height="3.2449999999999997" rx="0"></rect>
<rect x="4.8774999999999995" y="35.16416666666666" width="3.2449999999999997" height="3.2449999999999997" rx="0"></rect>
<rect x="13.530833333333332" y="35.16416666666666" width="3.2449999999999997" height="3.2449999999999997" rx="0"></rect>
<rect x="22.184166666666666" y="35.16416666666666" width="3.2449999999999997" height="3.2449999999999997" rx="0"></rect>
<rect x="26.51083333333333" y="35.16416666666666" width="3.2449999999999997" height="3.2449999999999997" rx="0"></rect>
<rect x="30.837499999999995" y="35.16416666666666" width="3.2449999999999997" height="3.2449999999999997" rx="0"></rect>
<rect x="35.16416666666666" y="35.16416666666666" width="3.2449999999999997" height="3.2449999999999997" rx="0"></rect>
<rect x="39.49083333333333" y="35.16416666666666" width="3.2449999999999997" height="3.2449999999999997" rx="0"></rect>
<rect x="48.144166666666656" y="35.16416666666666" width="3.2449999999999997" height="3.2449999999999997" rx="0"></rect>
<rect x="61.12416666666665" y="35.16416666666666" width="3.2449999999999997" height="3.2449999999999997" rx="0"></rect>
<rect x="65.45083333333334" y="35.16416666666666" width="3.2449999999999997" height="3.2449999999999997" rx="0"></rect>
<rect x="69.7775" y="35.16416666666666" width="3.2449999999999997" height="3.2449999999999997" rx="0"></rect>
<rect x="82.75750000000001" y="35.16416666666666" width="3.2449999999999997" height="3.2449999999999997" rx="0"></rect>
<rect x="91.41083333333333" y="35.16416666666666" width="3.2449999999999997" height="3.2449999999999997" rx="0"></rect>
<rect x="95.7375" y="35.16416666666666" width="3.2449999999999997" height="3.2449999999999997" rx="0"></rect>
<rect x="108.7175" y="35.16416666666666" width="3.2449999999999997" height="3.2449999999999997" rx="0"></rect>
<rect x="113.04416666666667" y="35.16416666666666" width="3.2449999999999997" height="3.2449999999999997" rx="0"></rect>
<rect x="117.37083333333334" y="35.16416666666666" width="3.2449999999999997" height="3.2449999999999997" rx="0"></rect>
<rect x="126.02416666666666" y="35.16416666666666" width="3.2449999999999997" height="3.2449999999999997" rx="0"></rect>
<rect x="130.3508333333333" y="35.16416666666666" width="3.2449999999999997" height="3.2449999999999997" rx="0"></rect>
<rect x="139.00416666666663" y="35.16416666666666" width="3.2449999999999997" height="3.2449999999999997" rx="0"></rect>
<rect x="17.857499999999998" y="39.49083333333333" width="3.2449999999999997" height="3.2449999999999997" rx="0"></rect>
<rect x="22.184166666666666" y="39.49083333333333" width="3.2449999999999997" height="3.2449999999999997" rx="0"></rect>
<rect x="35.16416666666666" y="39.49083333333333" width="3.2449999999999997" height="3.2449999999999997" rx="0"></rect>
<rect x="39.49083333333333" y="39.49083333333333" width="3.2449999999999997" height="3.2449999999999997" rx="0"></rect>
<rect x="48.144166666666656" y="39.49083333333333" width="3.2449999999999997" height="3.2449999999999997" rx="0"></rect>
<rect x="52.470833333333324" y="39.49083333333333" width="3.2449999999999997" height="3.2449999999999997" rx="0"></rect>
<rect x="65.45083333333334" y="39.49083333333333" width="3.2449999999999997" height="3.2449999999999997" rx="0"></rect>
<rect x="69.7775" y="39.49083333333333" width="3.2449999999999997" height="3.2449999999999997" rx="0"></rect>
<rect x="74.10416666666667" y="39.49083333333333" width="3.2449999999999997" height="3.2449999999999997" rx="0"></rect>
<rect x="87.08416666666668" y="39.49083333333333" width="3.2449999999999997" height="3.2449999999999997" rx="0"></rect>
<rect x="91.41083333333333" y="39.49083333333333" width="3.2449999999999997" height="3.2449999999999997" rx="0"></rect>
<rect x="104.39083333333333" y="39.49083333333333" width="3.2449999999999997" height="3.2449999999999997" rx="0"></rect>
<rect x="108.7175" y="39.49083333333333" width="3.2449999999999997" height="3.2449999999999997" rx="0"></rect>
<rect x="113.04416666666667" y="39.49083333333333" width="3.2449999999999997" height="3.2449999999999997" rx="0"></rect>
<rect x="117.37083333333334" y="39.49083333333333" width="3.2449999999999997" height="3.2449999999999997" rx="0"></rect>
<rect x="134.67749999999998" y="39.49083333333333" width="3.2449999999999997" height="3.2449999999999997" rx="0"></rect>
<rect x="139.00416666666663" y="39.49083333333333" width="3.2449999999999997" height="3.2449999999999997" rx="0"></rect>
<rect x="0.5508333333333333" y="43.817499999999995" width="3.2449999999999997" height="3.2449999999999997" rx="0"></rect>
<rect x="9.204166666666666" y="43.817499999999995" width="3.2449999999999997" height="3.2449999999999997" rx="0"></rect>
<rect x="22.184166666666666" y="43.817499999999995" width="3.2449999999999997" height="3.2449999999999997" rx="0"></rect>
<rect x="26.51083333333333" y="43.817499999999995" width="3.2449999999999997" height="3.2449999999999997" rx="0"></rect>
<rect x="30.837499999999995" y="43.817499999999995" width="3.2449999999999997" height="3.2449999999999997" rx="0"></rect>
<rect x="35.16416666666666" y="43.817499999999995" width="3.2449999999999997" height="3.2449999999999997" rx="0"></rect>
<rect x="39.49083333333333" y="43.817499999999995" width="3.2449999999999997" height="3.2449999999999997" rx="0"></rect>
<rect x="43.817499999999995" y="43.817499999999995" width="3.2449999999999997" height="3.2449999999999997" rx="0"></rect>
<rect x="48.144166666666656" y="43.817499999999995" width="3.2449999999999997" height="3.2449999999999997" rx="0"></rect>
<rect x="56.79749999999999" y="43.817499999999995" width="3.2449999999999997" height="3.2449999999999997" rx="0"></rect>
<rect x="69.7775" y="43.817499999999995" width="3.2449999999999997" height="3.2449999999999997" rx="0"></rect>
<rect x="78.43083333333334" y="43.817499999999995" width="3.2449999999999997" height="3.2449999999999997" rx="0"></rect>
<rect x="82.75750000000001" y="43.817499999999995" width="3.2449999999999997" height="3.2449999999999997" rx="0"></rect>
<rect x="91.41083333333333" y="43.817499999999995" width="3.2449999999999997" height="3.2449999999999997" rx="0"></rect>
<rect x="104.39083333333333" y="43.817499999999995" width="3.2449999999999997" height="3.2449999999999997" rx="0"></rect>
<rect x="108.7175" y="43.817499999999995" width="3.2449999999999997" height="3.2449999999999997" rx="0"></rect>
<rect x="113.04416666666667" y="43.817499999999995" width="3.2449999999999997" height="3.2449999999999997" rx="0"></rect>
<rect x="117.37083333333334" y="43.817499999999995" width="3.2449999999999997" height="3.2449999999999997" rx="0"></rect>
<rect x="121.69749999999999" y="43.817499999999995" width="3.2449999999999997" height="3.2449999999999997" rx="0"></rect>
<rect x="130.3508333333333" y="43.817499999999995" width="3.2449999999999997" height="3.2449999999999997" rx="0"></rect>
<rect x="139.00416666666663" y="43.817499999999995" width="3.2449999999999997" height="3.2449999999999997" rx="0"></rect>
<rect x="9.204166666666666" y="48.144166666666656" width="3.2449999999999997" height="3.2449999999999997" rx="0"></rect>
<rect x="13.530833333333332" y="48.144166666666656" width="3.2449999999999997" height="3.2449999999999997" rx="0"></rect>
<rect x="17.857499999999998" y="48.144166666666656" width="3.2449999999999997" height="3.2449999999999997" rx="0"></rect>
<rect x="22.184166666666666" y="48.144166666666656" width="3.2449999999999997" height="3.2449999999999997" rx="0"></rect>
<rect x="35.16416666666666" y="48.144166666666656" width="3.2449999999999997" height="3.2449999999999997" rx="0"></rect>
<rect x="48.144166666666656" y="48.144166666666656" width="3.2449999999999997" height="3.2449999999999997" rx="0"></rect>
<rect x="52.470833333333324" y="48.144166666666656" width="3.2449999999999997" height="3.2449999999999997" rx="0"></rect>
<rect x="56.79749999999999" y="48.144166666666656" width="3.2449999999999997" height="3.2449999999999997" rx="0"></rect>
<rect x="69.7775" y="48.144166666666656" width="3.2449999999999997" height="3.2449999999999997" rx="0"></rect>
<rect x="78.43083333333334" y="48.144166666666656" width="3.2449999999999997" height="3.2449999999999997" rx="0"></rect>
<rect x="82.75750000000001" y="48.144166666666656" width="3.2449999999999997" height="3.2449999999999997" rx="0"></rect>
<rect x="91.41083333333333" y="48.144166666666656" width="3.2449999999999997" height="3.2449999999999997" rx="0"></rect>
<rect x="95.7375" y="48.144166666666656" width="3.2449999999999997" height="3.2449999999999997" rx="0"></rect>
<rect x="113.04416666666667" y="48.144166666666656" width="3.2449999999999997" height="3.2449999999999997" rx="0"></rect>
<rect x="121.69749999999999" y="48.144166666666656" width="3.2449999999999997" height="3.2449999999999997" rx="0"></rect>
<rect x="126.02416666666666" y="48.144166666666656" width="3.2449999999999997" height="3.2449999999999997" rx="0"></rect>
<rect x="0.5508333333333333" y="52.470833333333324" width="3.2449999999999997" height="3.2449999999999997" rx="0"></rect>
<rect x="4.8774999999999995" y="52.470833333333324" width="3.2449999999999997" height="3.2449999999999997" rx="0"></rect>
<rect x="9.204166666666666" y="52.470833333333324" width="3.2449999999999997" height="3.2449999999999997" rx="0"></rect>
<rect x="13.530833333333332" y="52.470833333333324" width="3.2449999999999997" height="3.2449999999999997" rx="0"></rect>
<rect x="26.51083333333333" y="52.470833333333324" width="3.2449999999999997" height="3.2449999999999997" rx="0"></rect>
<rect x="30.837499999999995" y="52.470833333333324" width="3.2449999999999997" height="3.2449999999999997" rx="0"></rect>
<rect x="39.49083333333333" y="52.470833333333324" width="3.2449999999999997" height="3.2449999999999997" rx="0"></rect>
<rect x="52.470833333333324" y="52.470833333333324" width="3.2449999999999997" height="3.2449999999999997" rx="0"></rect>
<rect x="61.12416666666665" y="52.470833333333324" width="3.2449999999999997" height="3.2449999999999997" rx="0"></rect>
<rect x="69.7775" y="52.470833333333324" width="3.2449999999999997" height="3.2449999999999997" rx="0"></rect>
<rect x="78.43083333333334" y="52.470833333333324" width="3.2449999999999997" height="3.2449999999999997" rx="0"></rect>
<rect x="82.75750000000001" y="52.470833333333324" width="3.2449999999999997" height="3.2449999999999997" rx="0"></rect>
<rect x="87.08416666666668" y="52.470833333333324" width="3.2449999999999997" height="3.2449999999999997" rx="0"></rect>
<rect x="91.41083333333333" y="52.470833333333324" width="3.2449999999999997" height="3.2449999999999997" rx="0"></rect>
<rect x="100.06416666666667" y="52.470833333333324" width="3.2449999999999997" height="3.2449999999999997" rx="0"></rect>
<rect x="104.39083333333333" y="52.470833333333324" width="3.2449999999999997" height="3.2449999999999997" rx="0"></rect>
<rect x="108.7175" y="52.470833333333324" width="3.2449999999999997" height="3.2449999999999997" rx="0"></rect>
<rect x="113.04416666666667" y="52.470833333333324" width="3.2449999999999997" height="3.2449999999999997" rx="0"></rect>
<rect x="126.02416666666666" y="52.470833333333324" width="3.2449999999999997" height="3.2449999999999997" rx="0"></rect>
<rect x="139.00416666666663" y="52.470833333333324" width="3.2449999999999997" height="3.2449999999999997" rx="0"></rect>
<rect x="4.8774999999999995" y="56.79749999999999" width="3.2449999999999997" height="3.2449999999999997" rx="0"></rect>
<rect x="13.530833333333332" y="56.79749999999999" width="3.2449999999999997" height="3.2449999999999997" rx="0"></rect>
<rect x="39.49083333333333" y="56.79749999999999" width="3.2449999999999997" height="3.2449999999999997" rx="0"></rect>
<rect x="52.470833333333324" y="56.79749999999999" width="3.2449999999999997" height="3.2449999999999997" rx="0"></rect>
<rect x="56.79749999999999" y="56.79749999999999" width="3.2449999999999997" height="3.2449999999999997" rx="0"></rect>
<rect x="69.7775" y="56.79749999999999" width="3.2449999999999997" height="3.2449999999999997" rx="0"></rect>
<rect x="78.43083333333334" y="56.79749999999999" width="3.2449999999999997" height="3.2449999999999997" rx="0"></rect>
<rect x="82.75750000000001" y="56.79749999999999" width="3.2449999999999997" height="3.2449999999999997" rx="0"></rect>
<rect x="87.08416666666668" y="56.79749999999999" width="3.2449999999999997" height="3.2449999999999997" rx="0"></rect>
<rect x="95.7375" y="56.79749999999999" width="3.2449999999999997" height="3.2449999999999997" rx="0"></rect>
<rect x="104.39083333333333" y="56.79749999999999" width="3.2449999999999997" height="3.2449999999999997" rx="0"></rect>
<rect x="113.04416666666667" y="56.79749999999999" width="3.2449999999999997" height="3.2449999999999997" rx="0"></rect>
<rect x="121.69749999999999" y="56.79749999999999" width="3.2449999999999997" height="3.2449999999999997" rx="0"></rect>
<rect x="134.67749999999998" y="56.79749999999999" width="3.2449999999999997" height="3.2449999999999997" rx="0"></rect>
<rect x="139.00416666666663" y="56.79749999999999" width="3.2449999999999997" height="3.2449999999999997" rx="0"></rect>
<rect x="0.5508333333333333" y="61.12416666666665" width="3.2449999999999997" height="3.2449999999999997" rx="0"></rect>
<rect x="17.857499999999998" y="61.12416666666665" width="3.2449999999999997" height="3.2449999999999997" rx="0"></rect>
<rect x="22.184166666666666" y="61.12416666666665" width="3.2449999999999997" height="3.2449999999999997" rx="0"></rect>
<rect x="26.51083333333333" y="61.12416666666665" width="3.2449999999999997" height="3.2449999999999997" rx="0"></rect>
<rect x="35.16416666666666" y="61.12416666666665" width="3.2449999999999997" height="3.2449999999999997" rx="0"></rect>
<rect x="39.49083333333333" y="61.12416666666665" width="3.2449999999999997" height="3.2449999999999997" rx="0"></rect>
<rect x="48.144166666666656" y="61.12416666666665" width="3.2449999999999997" height="3.2449999999999997" rx="0"></rect>
<rect x="61.12416666666665" y="61.12416666666665" width="3.2449999999999997" height="3.2449999999999997" rx="0"></rect>
<rect x="65.45083333333334" y="61.12416666666665" width="3.2449999999999997" height="3.2449999999999997" rx="0"></rect>
<rect x="78.43083333333334" y="61.12416666666665" width="3.2449999999999997" height="3.2449999999999997" rx="0"></rect>
<rect x="87.08416666666668" y="61.12416666666665" width="3.2449999999999997" height="3.2449999999999997" rx="0"></rect>
<rect x="91.41083333333333" y="61.12416666666665" width="3.2449999999999997" height="3.2449999999999997" rx="0"></rect>
<rect x="100.06416666666667" y="61.12416666666665" width="3.2449999999999997" height="3.2449999999999997" rx="0"></rect>
<rect x="108.7175" y="61.12416666666665" width="3.2449999999999997" height="3.2449999999999997" rx="0"></rect>
<rect x="113.04416666666667" y="61.12416666666665" width="3.2449999999999997" height="3.2449999999999997" rx="0"></rect>
<rect x="121.69749999999999" y="61.12416666666665" width="3.2449999999999997" height="3.2449999999999997" rx="0"></rect>
<rect x="126.02416666666666" y="61.12416666666665" width="3.2449999999999997" height="3.2449999999999997" rx="0"></rect>
<rect x="130.3508333333333" y="61.12416666666665" width="3.2449999999999997" height="3.2449999999999997" rx="0"></rect>
<rect x="134.67749999999998" y="61.12416666666665" width="3.2449999999999997" height="3.2449999999999997" rx="0"></rect>
<rect x="0.5508333333333333" y="65.45083333333334" width="3.2449999999999997" height="3.2449999999999997" rx="0"></rect>
<rect x="17.857499999999998" y="65.45083333333334" width="3.2449999999999997" height="3.2449999999999997" rx="0"></rect>
<rect x="22.184166666666666" y="65.45083333333334" width="3.2449999999999997" height="3.2449999999999997" rx="0"></rect>
<rect x="30.837499999999995" y="65.45083333333334" width="3.2449999999999997" height="3.2449999999999997" rx="0"></rect>
<rect x="35.16416666666666" y="65.45083333333334" width="3.2449999999999997" height="3.2449999999999997" rx="0"></rect>
<rect x="48.144166666666656" y="65.45083333333334" width="3.2449999999999997" height="3.2449999999999997" rx="0"></rect>
<rect x="52.470833333333324" y="65.45083333333334" width="3.2449999999999997" height="3.2449999999999997" rx="0"></rect>
<rect x="56.79749999999999" y="65.45083333333334" width="3.2449999999999997" height="3.2449999999999997" rx="0"></rect>
<rect x="61.12416666666665" y="65.45083333333334" width="3.2449999999999997" height="3.2449999999999997" rx="0"></rect>
<rect x="69.7775" y="65.45083333333334" width="3.2449999999999997" height="3.2449999999999997" rx="0"></rect>
<rect x="82.75750000000001" y="65.45083333333334" width="3.2449999999999997" height="3.2449999999999997" rx="0"></rect>
<rect x="87.08416666666668" y="65.45083333333334" width="3.2449999999999997" height="3.2449999999999997" rx="0"></rect>
<rect x="91.41083333333333" y="65.45083333333334" width="3.2449999999999997" height="3.2449999999999997" rx="0"></rect>
<rect x="100.06416666666667" y="65.45083333333334" width="3.2449999999999997" height="3.2449999999999997" rx="0"></rect>
<rect x="113.04416666666667" y="65.45083333333334" width="3.2449999999999997" height="3.2449999999999997" rx="0"></rect>
<rect x="134.67749999999998" y="65.45083333333334" width="3.2449999999999997" height="3.2449999999999997" rx="0"></rect>
<rect x="4.8774999999999995" y="69.7775" width="3.2449999999999997" height="3.2449999999999997" rx="0"></rect>
<rect x="9.204166666666666" y="69.7775" width="3.2449999999999997" height="3.2449999999999997" rx="0"></rect>
<rect x="13.530833333333332" y="69.7775" width="3.2449999999999997" height="3.2449999999999997" rx="0"></rect>
<rect x="17.857499999999998" y="69.7775" width="3.2449999999999997" height="3.2449999999999997" rx="0"></rect>
<rect x="26.51083333333333" y="69.7775" width="3.2449999999999997" height="3.2449999999999997" rx="0"></rect>
<rect x="35.16416666666666" y="69.7775" width="3.2449999999999997" height="3.2449999999999997" rx="0"></rect>
<rect x="39.49083333333333" y="69.7775" width="3.2449999999999997" height="3.2449999999999997" rx="0"></rect>
<rect x="61.12416666666665" y="69.7775" width="3.2449999999999997" height="3.2449999999999997" rx="0"></rect>
<rect x="82.75750000000001" y="69.7775" width="3.2449999999999997" height="3.2449999999999997" rx="0"></rect>
<rect x="87.08416666666668" y="69.7775" width="3.2449999999999997" height="3.2449999999999997" rx="0"></rect>
<rect x="91.41083333333333" y="69.7775" width="3.2449999999999997" height="3.2449999999999997" rx="0"></rect>
<rect x="95.7375" y="69.7775" width="3.2449999999999997" height="3.2449999999999997" rx="0"></rect>
<rect x="104.39083333333333" y="69.7775" width="3.2449999999999997" height="3.2449999999999997" rx="0"></rect>
<rect x="113.04416666666667" y="69.7775" width="3.2449999999999997" height="3.2449999999999997" rx="0"></rect>
<rect x="121.69749999999999" y="69.7775" width="3.2449999999999997" height="3.2449999999999997" rx="0"></rect>
<rect x="134.67749999999998" y="69.7775" width="3.2449999999999997" height="3.2449999999999997" rx="0"></rect>
<rect x="0.5508333333333333" y="74.10416666666667" width="3.2449999999999997" height="3.2449999999999997" rx="0"></rect>
<rect x="9.204166666666666" y="74.10416666666667" width="3.2449999999999997" height="3.2449999999999997" rx="0"></rect>
<rect x="13.530833333333332" y="74.10416666666667" width="3.2449999999999997" height="3.2449999999999997" rx="0"></rect>
<rect x="30.837499999999995" y="74.10416666666667" width="3.2449999999999997" height="3.2449999999999997" rx="0"></rect>
<rect x="48.144166666666656" y="74.10416666666667" width="3.2449999999999997" height="3.2449999999999997" rx="0"></rect>
<rect x="52.470833333333324" y="74.10416666666667" width="3.2449999999999997" height="3.2449999999999997" rx="0"></rect>
<rect x="56.79749999999999" y="74.10416666666667" width="3.2449999999999997" height="3.2449999999999997" rx="0"></rect>
<rect x="61.12416666666665" y="74.10416666666667" width="3.2449999999999997" height="3.2449999999999997" rx="0"></rect>
<rect x="78.43083333333334" y="74.10416666666667" width="3.2449999999999997" height="3.2449999999999997" rx="0"></rect>
<rect x="100.06416666666667" y="74.10416666666667" width="3.2449999999999997" height="3.2449999999999997" rx="0"></rect>
<rect x="104.39083333333333" y="74.10416666666667" width="3.2449999999999997" height="3.2449999999999997" rx="0"></rect>
<rect x="108.7175" y="74.10416666666667" width="3.2449999999999997" height="3.2449999999999997" rx="0"></rect>
<rect x="117.37083333333334" y="74.10416666666667" width="3.2449999999999997" height="3.2449999999999997" rx="0"></rect>
<rect x="126.02416666666666" y="74.10416666666667" width="3.2449999999999997" height="3.2449999999999997" rx="0"></rect>
<rect x="0.5508333333333333" y="78.43083333333334" width="3.2449999999999997" height="3.2449999999999997" rx="0"></rect>
<rect x="4.8774999999999995" y="78.43083333333334" width="3.2449999999999997" height="3.2449999999999997" rx="0"></rect>
<rect x="9.204166666666666" y="78.43083333333334" width="3.2449999999999997" height="3.2449999999999997" rx="0"></rect>
<rect x="17.857499999999998" y="78.43083333333334" width="3.2449999999999997" height="3.2449999999999997" rx="0"></rect>
<rect x="22.184166666666666" y="78.43083333333334" width="3.2449999999999997" height="3.2449999999999997" rx="0"></rect>
<rect x="26.51083333333333" y="78.43083333333334" width="3.2449999999999997" height="3.2449999999999997" rx="0"></rect>
<rect x="30.837499999999995" y="78.43083333333334" width="3.2449999999999997" height="3.2449999999999997" rx="0"></rect>
<rect x="35.16416666666666" y="78.43083333333334" width="3.2449999999999997" height="3.2449999999999997" rx="0"></rect>
<rect x="52.470833333333324" y="78.43083333333334" width="3.2449999999999997" height="3.2449999999999997" rx="0"></rect>
<rect x="65.45083333333334" y="78.43083333333334" width="3.2449999999999997" height="3.2449999999999997" rx="0"></rect>
<rect x="69.7775" y="78.43083333333334" width="3.2449999999999997" height="3.2449999999999997" rx="0"></rect>
<rect x="74.10416666666667" y="78.43083333333334" width="3.2449999999999997" height="3.2449999999999997" rx="0"></rect>
<rect x="95.7375" y="78.43083333333334" width="3.2449999999999997" height="3.2449999999999997" rx="0"></rect>
<rect x="104.39083333333333" y="78.43083333333334" width="3.2449999999999997" height="3.2449999999999997" rx="0"></rect>
<rect x="108.7175" y="78.43083333333334" width="3.2449999999999997" height="3.2449999999999997" rx="0"></rect>
<rect x="130.3508333333333" y="78.43083333333334" width="3.2449999999999997" height="3.2449999999999997" rx="0"></rect>
<rect x="134.67749999999998" y="78.43083333333334" width="3.2449999999999997" height="3.2449999999999997" rx="0"></rect>
<rect x="139.00416666666663" y="78.43083333333334" width="3.2449999999999997" height="3.2449999999999997" rx="0"></rect>
<rect x="9.204166666666666" y="82.75750000000001" width="3.2449999999999997" height="3.2449999999999997" rx="0"></rect>
<rect x="13.530833333333332" y="82.75750000000001" width="3.2449999999999997" height="3.2449999999999997" rx="0"></rect>
<rect x="17.857499999999998" y="82.75750000000001" width="3.2449999999999997" height="3.2449999999999997" rx="0"></rect>
<rect x="35.16416666666666" y="82.75750000000001" width="3.2449999999999997" height="3.2449999999999997" rx="0"></rect>
<rect x="39.49083333333333" y="82.75750000000001" width="3.2449999999999997" height="3.2449999999999997" rx="0"></rect>
<rect x="48.144166666666656" y="82.75750000000001" width="3.2449999999999997" height="3.2449999999999997" rx="0"></rect>
<rect x="52.470833333333324" y="82.75750000000001" width="3.2449999999999997" height="3.2449999999999997" rx="0"></rect>
<rect x="56.79749999999999" y="82.75750000000001" width="3.2449999999999997" height="3.2449999999999997" rx="0"></rect>
<rect x="61.12416666666665" y="82.75750000000001" width="3.2449999999999997" height="3.2449999999999997" rx="0"></rect>
<rect x="69.7775" y="82.75750000000001" width="3.2449999999999997" height="3.2449999999999997" rx="0"></rect>
<rect x="74.10416666666667" y="82.75750000000001" width="3.2449999999999997" height="3.2449999999999997" rx="0"></rect>
<rect x="82.75750000000001" y="82.75750000000001" width="3.2449999999999997" height="3.2449999999999997" rx="0"></rect>
<rect x="87.08416666666668" y="82.75750000000001" width="3.2449999999999997" height="3.2449999999999997" rx="0"></rect>
<rect x="91.41083333333333" y="82.75750000000001" width="3.2449999999999997" height="3.2449999999999997" rx="0"></rect>
<rect x="95.7375" y="82.75750000000001" width="3.2449999999999997" height="3.2449999999999997" rx="0"></rect>
<rect x="100.06416666666667" y="82.75750000000001" width="3.2449999999999997" height="3.2449999999999997" rx="0"></rect>
<rect x="104.39083333333333" y="82.75750000000001" width="3.2449999999999997" height="3.2449999999999997" rx="0"></rect>
<rect x="117.37083333333334" y="82.75750000000001" width="3.2449999999999997" height="3.2449999999999997" rx="0"></rect>
<rect x="134.67749999999998" y="82.75750000000001" width="3.2449999999999997" height="3.2449999999999997" rx="0"></rect>
<rect x="0.5508333333333333" y="87.08416666666668" width="3.2449999999999997" height="3.2449999999999997" rx="0"></rect>
<rect x="4.8774999999999995" y="87.08416666666668" width="3.2449999999999997" height="3.2449999999999997" rx="0"></rect>
<rect x="9.204166666666666" y="87.08416666666668" width="3.2449999999999997" height="3.2449999999999997" rx="0"></rect>
<rect x="13.530833333333332" y="87.08416666666668" width="3.2449999999999997" height="3.2449999999999997" rx="0"></rect>
<rect x="17.857499999999998" y="87.08416666666668" width="3.2449999999999997" height="3.2449999999999997" rx="0"></rect>
<rect x="22.184166666666666" y="87.08416666666668" width="3.2449999999999997" height="3.2449999999999997" rx="0"></rect>
<rect x="26.51083333333333" y="87.08416666666668" width="3.2449999999999997" height="3.2449999999999997" rx="0"></rect>
<rect x="39.49083333333333" y="87.08416666666668" width="3.2449999999999997" height="3.2449999999999997" rx="0"></rect>
<rect x="56.79749999999999" y="87.08416666666668" width="3.2449999999999997" height="3.2449999999999997" rx="0"></rect>
<rect x="61.12416666666665" y="87.08416666666668" width="3.2449999999999997" height="3.2449999999999997" rx="0"></rect>
<rect x="69.7775" y="87.08416666666668" width="3.2449999999999997" height="3.2449999999999997" rx="0"></rect>
<rect x="78.43083333333334" y="87.08416666666668" width="3.2449999999999997" height="3.2449999999999997" rx="0"></rect>
<rect x="82.75750000000001" y="87.08416666666668" width="3.2449999999999997" height="3.2449999999999997" rx="0"></rect>
<rect x="91.41083333333333" y="87.08416666666668" width="3.2449999999999997" height="3.2449999999999997" rx="0"></rect>
<rect x="100.06416666666667" y="87.08416666666668" width="3.2449999999999997" height="3.2449999999999997" rx="0"></rect>
<rect x="104.39083333333333" y="87.08416666666668" width="3.2449999999999997" height="3.2449999999999997" rx="0"></rect>
<rect x="108.7175" y="87.08416666666668" width="3.2449999999999997" height="3.2449999999999997" rx="0"></rect>
<rect x="134.67749999999998" y="87.08416666666668" width="3.2449999999999997" height="3.2449999999999997" rx="0"></rect>
<rect x="9.204166666666666" y="91.41083333333333" width="3.2449999999999997" height="3.2449999999999997" rx="0"></rect>
<rect x="30.837499999999995" y="91.41083333333333" width="3.2449999999999997" height="3.2449999999999997" rx="0"></rect>
<rect x="35.16416666666666" y="91.41083333333333" width="3.2449999999999997" height="3.2449999999999997" rx="0"></rect>
<rect x="39.49083333333333" y="91.41083333333333" width="3.2449999999999997" height="3.2449999999999997" rx="0"></rect>
<rect x="48.144166666666656" y="91.41083333333333" width="3.2449999999999997" height="3.2449999999999997" rx="0"></rect>
<rect x="52.470833333333324" y="91.41083333333333" width="3.2449999999999997" height="3.2449999999999997" rx="0"></rect>
<rect x="56.79749999999999" y="91.41083333333333" width="3.2449999999999997" height="3.2449999999999997" rx="0"></rect>
<rect x="61.12416666666665" y="91.41083333333333" width="3.2449999999999997" height="3.2449999999999997" rx="0"></rect>
<rect x="78.43083333333334" y="91.41083333333333" width="3.2449999999999997" height="3.2449999999999997" rx="0"></rect>
<rect x="87.08416666666668" y="91.41083333333333" width="3.2449999999999997" height="3.2449999999999997" rx="0"></rect>
<rect x="91.41083333333333" y="91.41083333333333" width="3.2449999999999997" height="3.2449999999999997" rx="0"></rect>
<rect x="104.39083333333333" y="91.41083333333333" width="3.2449999999999997" height="3.2449999999999997" rx="0"></rect>
<rect x="108.7175" y="91.41083333333333" width="3.2449999999999997" height="3.2449999999999997" rx="0"></rect>
<rect x="113.04416666666667" y="91.41083333333333" width="3.2449999999999997" height="3.2449999999999997" rx="0"></rect>
<rect x="126.02416666666666" y="91.41083333333333" width="3.2449999999999997" height="3.2449999999999997" rx="0"></rect>
<rect x="134.67749999999998" y="91.41083333333333" width="3.2449999999999997" height="3.2449999999999997" rx="0"></rect>
<rect x="139.00416666666663" y="91.41083333333333" width="3.2449999999999997" height="3.2449999999999997" rx="0"></rect>
<rect x="0.5508333333333333" y="95.7375" width="3.2449999999999997" height="3.2449999999999997" rx="0"></rect>
<rect x="4.8774999999999995" y="95.7375" width="3.2449999999999997" height="3.2449999999999997" rx="0"></rect>
<rect x="9.204166666666666" y="95.7375" width="3.2449999999999997" height="3.2449999999999997" rx="0"></rect>
<rect x="26.51083333333333" y="95.7375" width="3.2449999999999997" height="3.2449999999999997" rx="0"></rect>
<rect x="30.837499999999995" y="95.7375" width="3.2449999999999997" height="3.2449999999999997" rx="0"></rect>
<rect x="35.16416666666666" y="95.7375" width="3.2449999999999997" height="3.2449999999999997" rx="0"></rect>
<rect x="52.470833333333324" y="95.7375" width="3.2449999999999997" height="3.2449999999999997" rx="0"></rect>
<rect x="56.79749999999999" y="95.7375" width="3.2449999999999997" height="3.2449999999999997" rx="0"></rect>
<rect x="74.10416666666667" y="95.7375" width="3.2449999999999997" height="3.2449999999999997" rx="0"></rect>
<rect x="78.43083333333334" y="95.7375" width="3.2449999999999997" height="3.2449999999999997" rx="0"></rect>
<rect x="82.75750000000001" y="95.7375" width="3.2449999999999997" height="3.2449999999999997" rx="0"></rect>
<rect x="91.41083333333333" y="95.7375" width="3.2449999999999997" height="3.2449999999999997" rx="0"></rect>
<rect x="113.04416666666667" y="95.7375" width="3.2449999999999997" height="3.2449999999999997" rx="0"></rect>
<rect x="117.37083333333334" y="95.7375" width="3.2449999999999997" height="3.2449999999999997" rx="0"></rect>
<rect x="126.02416666666666" y="95.7375" width="3.2449999999999997" height="3.2449999999999997" rx="0"></rect>
<rect x="130.3508333333333" y="95.7375" width="3.2449999999999997" height="3.2449999999999997" rx="0"></rect>
<rect x="139.00416666666663" y="95.7375" width="3.2449999999999997" height="3.2449999999999997" rx="0"></rect>
<rect x="4.8774999999999995" y="100.06416666666667" width="3.2449999999999997" height="3.2449999999999997" rx="0"></rect>
<rect x="13.530833333333332" y="100.06416666666667" width="3.2449999999999997" height="3.2449999999999997" rx="0"></rect>
<rect x="17.857499999999998" y="100.06416666666667" width="3.2449999999999997" height="3.2449999999999997" rx="0"></rect>
<rect x="22.184166666666666" y="100.06416666666667" width="3.2449999999999997" height="3.2449999999999997" rx="0"></rect>
<rect x="39.49083333333333" y="100.06416666666667" width="3.2449999999999997" height="3.2449999999999997" rx="0"></rect>
<rect x="43.817499999999995" y="100.06416666666667" width="3.2449999999999997" height="3.2449999999999997" rx="0"></rect>
<rect x="56.79749999999999" y="100.06416666666667" width="3.2449999999999997" height="3.2449999999999997" rx="0"></rect>
<rect x="74.10416666666667" y="100.06416666666667" width="3.2449999999999997" height="3.2449999999999997" rx="0"></rect>
<rect x="78.43083333333334" y="100.06416666666667" width="3.2449999999999997" height="3.2449999999999997" rx="0"></rect>
<rect x="91.41083333333333" y="100.06416666666667" width="3.2449999999999997" height="3.2449999999999997" rx="0"></rect>
<rect x="95.7375" y="100.06416666666667" width="3.2449999999999997" height="3.2449999999999997" rx="0"></rect>
<rect x="100.06416666666667" y="100.06416666666667" width="3.2449999999999997" height="3.2449999999999997" rx="0"></rect>
<rect x="104.39083333333333" y="100.06416666666667" width="3.2449999999999997" height="3.2449999999999997" rx="0"></rect>
<rect x="117.37083333333334" y="100.06416666666667" width="3.2449999999999997" height="3.2449999999999997" rx="0"></rect>
<rect x="121.69749999999999" y="100.06416666666667" width="3.2449999999999997" height="3.2449999999999997" rx="0"></rect>
<rect x="126.02416666666666" y="100.06416666666667" width="3.2449999999999997" height="3.2449999999999997" rx="0"></rect>
<rect x="134.67749999999998" y="100.06416666666667" width="3.2449999999999997" height="3.2449999999999997" rx="0"></rect>
<rect x="139.00416666666663" y="100.06416666666667" width="3.2449999999999997" height="3.2449999999999997" rx="0"></rect>
<rect x="0.5508333333333333" y="104.39083333333333" width="3.2449999999999997" height="3.2449999999999997" rx="0"></rect>
<rect x="9.204166666666666" y="104.39083333333333" width="3.2449999999999997" height="3.2449999999999997" rx="0"></rect>
<rect x="17.857499999999998" y="104.39083333333333" width="3.2449999999999997" height="3.2449999999999997" rx="0"></rect>
<rect x="26.51083333333333" y="104.39083333333333" width="3.2449999999999997" height="3.2449999999999997" rx="0"></rect>
<rect x="30.837499999999995" y="104.39083333333333" width="3.2449999999999997" height="3.2449999999999997" rx="0"></rect>
<rect x="39.49083333333333" y="104.39083333333333" width="3.2449999999999997" height="3.2449999999999997" rx="0"></rect>
<rect x="43.817499999999995" y="104.39083333333333" width="3.2449999999999997" height="3.2449999999999997" rx="0"></rect>
<rect x="56.79749999999999" y="104.39083333333333" width="3.2449999999999997" height="3.2449999999999997" rx="0"></rect>
<rect x="65.45083333333334" y="104.39083333333333" width="3.2449999999999997" height="3.2449999999999997" rx="0"></rect>
<rect x="69.7775" y="104.39083333333333" width="3.2449999999999997" height="3.2449999999999997" rx="0"></rect>
<rect x="87.08416666666668" y="104.39083333333333" width="3.2449999999999997" height="3.2449999999999997" rx="0"></rect>
<rect x="91.41083333333333" y="104.39083333333333" width="3.2449999999999997" height="3.2449999999999997" rx="0"></rect>
<rect x="100.06416666666667" y="104.39083333333333" width="3.2449999999999997" height="3.2449999999999997" rx="0"></rect>
<rect x="104.39083333333333" y="104.39083333333333" width="3.2449999999999997" height="3.2449999999999997" rx="0"></rect>
<rect x="108.7175" y="104.39083333333333" width="3.2449999999999997" height="3.2449999999999997" rx="0"></rect>
<rect x="113.04416666666667" y="104.39083333333333" width="3.2449999999999997" height="3.2449999999999997" rx="0"></rect>
<rect x="117.37083333333334" y="104.39083333333333" width="3.2449999999999997" height="3.2449999999999997" rx="0"></rect>
<rect x="121.69749999999999" y="104.39083333333333" width="3.2449999999999997" height="3.2449999999999997" rx="0"></rect>
<rect x="126.02416666666666" y="104.39083333333333" width="3.2449999999999997" height="3.2449999999999997" rx="0"></rect>
<rect x="134.67749999999998" y="104.39083333333333" width="3.2449999999999997" height="3.2449999999999997" rx="0"></rect>
<rect x="35.16416666666666" y="108.7175" width="3.2449999999999997" height="3.2449999999999997" rx="0"></rect>
<rect x="56.79749999999999" y="108.7175" width="3.2449999999999997" height="3.2449999999999997" rx="0"></rect>
<rect x="61.12416666666665" y="108.7175" width="3.2449999999999997" height="3.2449999999999997" rx="0"></rect>
<rect x="69.7775" y="108.7175" width="3.2449999999999997" height="3.2449999999999997" rx="0"></rect>
<rect x="74.10416666666667" y="108.7175" width="3.2449999999999997" height="3.2449999999999997" rx="0"></rect>
<rect x="78.43083333333334" y="108.7175" width="3.2449999999999997" height="3.2449999999999997" rx="0"></rect>
<rect x="82.75750000000001" y="108.7175" width="3.2449999999999997" height="3.2449999999999997" rx="0"></rect>
<rect x="91.41083333333333" y="108.7175" width="3.2449999999999997" height="3.2449999999999997" rx="0"></rect>
<rect x="95.7375" y="108.7175" width="3.2449999999999997" height="3.2449999999999997" rx="0"></rect>
<rect x="104.39083333333333" y="108.7175" width="3.2449999999999997" height="3.2449999999999997" rx="0"></rect>
<rect x="121.69749999999999" y="108.7175" width="3.2449999999999997" height="3.2449999999999997" rx="0"></rect>
<rect x="126.02416666666666" y="108.7175" width="3.2449999999999997" height="3.2449999999999997" rx="0"></rect>
<rect x="134.67749999999998" y="108.7175" width="3.2449999999999997" height="3.2449999999999997" rx="0"></rect>
<rect x="139.00416666666663" y="108.7175" width="3.2449999999999997" height="3.2449999999999997" rx="0"></rect>
<rect x="35.16416666666666" y="113.04416666666667" width="3.2449999999999997" height="3.2449999999999997" rx="0"></rect>
<rect x="39.49083333333333" y="113.04416666666667" width="3.2449999999999997" height="3.2449999999999997" rx="0"></rect>
<rect x="52.470833333333324" y="113.04416666666667" width="3.2449999999999997" height="3.2449999999999997" rx="0"></rect>
<rect x="56.79749999999999" y="113.04416666666667" width="3.2449999999999997" height="3.2449999999999997" rx="0"></rect>
<rect x="78.43083333333334" y="113.04416666666667" width="3.2449999999999997" height="3.2449999999999997" rx="0"></rect>
<rect x="87.08416666666668" y="113.04416666666667" width="3.2449999999999997" height="3.2449999999999997" rx="0"></rect>
<rect x="95.7375" y="113.04416666666667" width="3.2449999999999997" height="3.2449999999999997" rx="0"></rect>
<rect x="104.39083333333333" y="113.04416666666667" width="3.2449999999999997" height="3.2449999999999997" rx="0"></rect>
<rect x="113.04416666666667" y="113.04416666666667" width="3.2449999999999997" height="3.2449999999999997" rx="0"></rect>
<rect x="121.69749999999999" y="113.04416666666667" width="3.2449999999999997" height="3.2449999999999997" rx="0"></rect>
<rect x="126.02416666666666" y="113.04416666666667" width="3.2449999999999997" height="3.2449999999999997" rx="0"></rect>
<rect x="130.3508333333333" y="113.04416666666667" width="3.2449999999999997" height="3.2449999999999997" rx="0"></rect>
<rect x="134.67749999999998" y="113.04416666666667" width="3.2449999999999997" height="3.2449999999999997" rx="0"></rect>
<rect x="35.16416666666666" y="117.37083333333334" width="3.2449999999999997" height="3.2449999999999997" rx="0"></rect>
<rect x="39.49083333333333" y="117.37083333333334" width="3.2449999999999997" height="3.2449999999999997" rx="0"></rect>
<rect x="48.144166666666656" y="117.37083333333334" width="3.2449999999999997" height="3.2449999999999997" rx="0"></rect>
<rect x="52.470833333333324" y="117.37083333333334" width="3.2449999999999997" height="3.2449999999999997" rx="0"></rect>
<rect x="82.75750000000001" y="117.37083333333334" width="3.2449999999999997" height="3.2449999999999997" rx="0"></rect>
<rect x="87.08416666666668" y="117.37083333333334" width="3.2449999999999997" height="3.2449999999999997" rx="0"></rect>
<rect x="91.41083333333333" y="117.37083333333334" width="3.2449999999999997" height="3.2449999999999997" rx="0"></rect>
<rect x="95.7375" y="117.37083333333334" width="3.2449999999999997" height="3.2449999999999997" rx="0"></rect>
<rect x="104.39083333333333" y="117.37083333333334" width="3.2449999999999997" height="3.2449999999999997" rx="0"></rect>
<rect x="121.69749999999999" y="117.37083333333334" width="3.2449999999999997" height="3.2449999999999997" rx="0"></rect>
<rect x="139.00416666666663" y="117.37083333333334" width="3.2449999999999997" height="3.2449999999999997" rx="0"></rect>
<rect x="43.817499999999995" y="121.69749999999999" width="3.2449999999999997" height="3.2449999999999997" rx="0"></rect>
<rect x="52.470833333333324" y="121.69749999999999" width="3.2449999999999997" height="3.2449999999999997" rx="0"></rect>
<rect x="56.79749999999999" y="121.69749999999999" width="3.2449999999999997" height="3.2449999999999997" rx="0"></rect>
<rect x="61.12416666666665" y="121.69749999999999" width="3.2449999999999997" height="3.2449999999999997" rx="0"></rect>
<rect x="65.45083333333334" y="121.69749999999999" width="3.2449999999999997" height="3.2449999999999997" rx="0"></rect>
<rect x="78.43083333333334" y="121.69749999999999" width="3.2449999999999997" height="3.2449999999999997" rx="0"></rect>
<rect x="87.08416666666668" y="121.69749999999999" width="3.2449999999999997" height="3.2449999999999997" rx="0"></rect>
<rect x="91.41083333333333" y="121.69749999999999" width="3.2449999999999997" height="3.2449999999999997" rx="0"></rect>
<rect x="95.7375" y="121.69749999999999" width="3.2449999999999997" height="3.2449999999999997" rx="0"></rect>
<rect x="104.39083333333333" y="121.69749999999999" width="3.2449999999999997" height="3.2449999999999997" rx="0"></rect>
<rect x="108.7175" y="121.69749999999999" width="3.2449999999999997" height="3.2449999999999997" rx="0"></rect>
<rect x="113.04416666666667" y="121.69749999999999" width="3.2449999999999997" height="3.2449999999999997" rx="0"></rect>
<rect x="117.37083333333334" y="121.69749999999999" width="3.2449999999999997" height="3.2449999999999997" rx="0"></rect>
<rect x="121.69749999999999" y="121.69749999999999" width="3.2449999999999997" height="3.2449999999999997" rx="0"></rect>
<rect x="126.02416666666666" y="121.69749999999999" width="3.2449999999999997" height="3.2449999999999997" rx="0"></rect>
<rect x="134.67749999999998" y="121.69749999999999" width="3.2449999999999997" height="3.2449999999999997" rx="0"></rect>
<rect x="139.00416666666663" y="121.69749999999999" width="3.2449999999999997" height="3.2449999999999997" rx="0"></rect>
<rect x="35.16416666666666" y="126.02416666666666" width="3.2449999999999997" height="3.2449999999999997" rx="0"></rect>
<rect x="56.79749999999999" y="126.02416666666666" width="3.2449999999999997" height="3.2449999999999997" rx="0"></rect>
<rect x="95.7375" y="126.02416666666666" width="3.2449999999999997" height="3.2449999999999997" rx="0"></rect>
<rect x="100.06416666666667" y="126.02416666666666" width="3.2449999999999997" height="3.2449999999999997" rx="0"></rect>
<rect x="113.04416666666667" y="126.02416666666666" width="3.2449999999999997" height="3.2449999999999997" rx="0"></rect>
<rect x="121.69749999999999" y="126.02416666666666" width="3.2449999999999997" height="3.2449999999999997" rx="0"></rect>
<rect x="126.02416666666666" y="126.02416666666666" width="3.2449999999999997" height="3.2449999999999997" rx="0"></rect>
<rect x="134.67749999999998" y="126.02416666666666" width="3.2449999999999997" height="3.2449999999999997" rx="0"></rect>
<rect x="39.49083333333333" y="130.3508333333333" width="3.2449999999999997" height="3.2449999999999997" rx="0"></rect>
<rect x="52.470833333333324" y="130.3508333333333" width="3.2449999999999997" height="3.2449999999999997" rx="0"></rect>
<rect x="56.79749999999999" y="130.3508333333333" width="3.2449999999999997" height="3.2449999999999997" rx="0"></rect>
<rect x="61.12416666666665" y="130.3508333333333" width="3.2449999999999997" height="3.2449999999999997" rx="0"></rect>
<rect x="74.10416666666667" y="130.3508333333333" width="3.2449999999999997" height="3.2449999999999997" rx="0"></rect>
<rect x="78.43083333333334" y="130.3508333333333" width="3.2449999999999997" height="3.2449999999999997" rx="0"></rect>
<rect x="87.08416666666668" y="130.3508333333333" width="3.2449999999999997" height="3.2449999999999997" rx="0"></rect>
<rect x="91.41083333333333" y="130.3508333333333" width="3.2449999999999997" height="3.2449999999999997" rx="0"></rect>
<rect x="121.69749999999999" y="130.3508333333333" width="3.2449999999999997" height="3.2449999999999997" rx="0"></rect>
<rect x="139.00416666666663" y="130.3508333333333" width="3.2449999999999997" height="3.2449999999999997" rx="0"></rect>
<rect x="35.16416666666666" y="134.67749999999998" width="3.2449999999999997" height="3.2449999999999997" rx="0"></rect>
<rect x="39.49083333333333" y="134.67749999999998" width="3.2449999999999997" height="3.2449999999999997" rx="0"></rect>
<rect x="56.79749999999999" y="134.67749999999998" width="3.2449999999999997" height="3.2449999999999997" rx="0"></rect>
<rect x="61.12416666666665" y="134.67749999999998" width="3.2449999999999997" height="3.2449999999999997" rx="0"></rect>
<rect x="65.45083333333334" y="134.67749999999998" width="3.2449999999999997" height="3.2449999999999997" rx="0"></rect>
<rect x="69.7775" y="134.67749999999998" width="3.2449999999999997" height="3.2449999999999997" rx="0"></rect>
<rect x="78.43083333333334" y="134.67749999999998" width="3.2449999999999997" height="3.2449999999999997" rx="0"></rect>
<rect x="82.75750000000001" y="134.67749999999998" width="3.2449999999999997" height="3.2449999999999997" rx="0"></rect>
<rect x="91.41083333333333" y="134.67749999999998" width="3.2449999999999997" height="3.2449999999999997" rx="0"></rect>
<rect x="100.06416666666667" y="134.67749999999998" width="3.2449999999999997" height="3.2449999999999997" rx="0"></rect>
<rect x="104.39083333333333" y="134.67749999999998" width="3.2449999999999997" height="3.2449999999999997" rx="0"></rect>
<rect x="108.7175" y="134.67749999999998" width="3.2449999999999997" height="3.2449999999999997" rx="0"></rect>
<rect x="113.04416666666667" y="134.67749999999998" width="3.2449999999999997" height="3.2449999999999997" rx="0"></rect>
<rect x="43.817499999999995" y="139.00416666666663" width="3.2449999999999997" height="3.2449999999999997" rx="0"></rect>
<rect x="48.144166666666656" y="139.00416666666663" width="3.2449999999999997" height="3.2449999999999997" rx="0"></rect>
<rect x="52.470833333333324" y="139.00416666666663" width="3.2449999999999997" height="3.2449999999999997" rx="0"></rect>
<rect x="61.12416666666665" y="139.00416666666663" width="3.2449999999999997" height="3.2449999999999997" rx="0"></rect>
<rect x="91.41083333333333" y="139.00416666666663" width="3.2449999999999997" height="3.2449999999999997" rx="0"></rect>
<rect x="100.06416666666667" y="139.00416666666663" width="3.2449999999999997" height="3.2449999999999997" rx="0"></rect>
<rect x="104.39083333333333" y="139.00416666666663" width="3.2449999999999997" height="3.2449999999999997" rx="0"></rect>
<rect x="108.7175" y="139.00416666666663" width="3.2449999999999997" height="3.2449999999999997" rx="0"></rect>
<rect x="113.04416666666667" y="139.00416666666663" width="3.2449999999999997" height="3.2449999999999997" rx="0"></rect>
<rect x="121.69749999999999" y="139.00416666666663" width="3.2449999999999997" height="3.2449999999999997" rx="0"></rect>
<rect x="126.02416666666666" y="139.00416666666663" width="3.2449999999999997" height="3.2449999999999997" rx="0"></rect>
<rect x="134.67749999999998" y="139.00416666666663" width="3.2449999999999997" height="3.2449999999999997" rx="0"></rect>
</g>
<g>
<path d="M 2.163333333333333,2.163333333333333 L 23.796666666666663,2.163333333333333 A 4.326666666666666,4.326666666666666 0 0,1 28.123333333333328,6.489999999999999 L 28.123333333333328,28.123333333333328 L 23.796666666666663,28.123333333333328 L 6.489999999999999,28.123333333333328 A 4.326666666666666,4.326666666666666 0 0,1 2.163333333333333,23.796666666666663 Z" fill="none" stroke-width="4.326666666666666" stroke="#282473"></path>
<path d="M 8.653333333333332,8.653333333333332 L 19.47,8.653333333333332 A 2.163333333333333,2.163333333333333 0 0,1 21.633333333333333,10.816666666666666 L 21.633333333333333,21.633333333333333 L 19.47,21.633333333333333 L 10.816666666666666,21.633333333333333 A 2.163333333333333,2.163333333333333 0 0,1 8.653333333333332,19.47 Z" fill="#282473"></path>
<path d="M 140.63666666666666,2.163333333333333 L 140.63666666666666,23.796666666666663 A 4.326666666666666,4.326666666666666 0 0,1 136.30999999999997,28.123333333333328 L 119.00333333333333,28.123333333333328 L 114.67666666666665,28.123333333333328 L 114.67666666666665,6.489999999999999 A 4.326666666666666,4.326666666666666 0 0,1 119.00333333333332,2.163333333333333 Z" fill="none" stroke-width="4.326666666666666" stroke="#282473"></path>
<path d="M 134.14666666666665,8.653333333333332 L 134.14666666666665,19.47 A 2.163333333333333,2.163333333333333 0 0,1 131.98333333333332,21.633333333333333 L 123.32999999999998,21.633333333333333 L 121.16666666666666,21.633333333333333 L 121.16666666666666,10.816666666666666 A 2.163333333333333,2.163333333333333 0 0,1 123.32999999999998,8.653333333333332 Z" fill="#282473"></path>
<path d="M 28.123333333333328,114.67666666666665 L 28.123333333333328,136.30999999999997 A 4.326666666666666,4.326666666666666 0 0,1 23.796666666666663,140.63666666666666 L 6.489999999999999,140.63666666666666 L 2.163333333333333,140.63666666666666 L 2.163333333333333,119.00333333333332 A 4.326666666666666,4.326666666666666 0 0,1 6.489999999999999,114.67666666666665 Z" fill="none" stroke-width="4.326666666666666" stroke="#282473"></path>
<path d="M 15.14333333333333,121.16666666666666 L 21.633333333333333,121.16666666666666 L 21.633333333333333,123.32999999999998 L 21.633333333333333,131.98333333333332 A 2.163333333333333,2.163333333333333 0 0,1 19.47,134.14666666666665 L 8.653333333333332,134.14666666666665 L 8.653333333333332,123.32999999999998 A 2.163333333333333,2.163333333333333 0 0,1 10.816666666666666,121.16666666666666 Z" fill="#282473"></path>
</g>
</g>
</svg>